<svg xmlns="http://www.w3.org/2000/svg" xmlns:xlink="http://www.w3.org/1999/xlink" viewBox="0 0 196.33 178.81"><defs><style>.cls-1{isolation:isolate;}.cls-2{fill:url(#Безымянный_градиент_776);}.cls-3{fill:url(#Безымянный_градиент_776-2);}.cls-4{fill:url(#Безымянный_градиент_372);}.cls-12,.cls-14,.cls-5{fill:#fff;}.cls-12,.cls-5{mix-blend-mode:soft-light;}.cls-6{fill:#6e5066;}.cls-11,.cls-15,.cls-17,.cls-6,.cls-7{mix-blend-mode:multiply;}.cls-11,.cls-12,.cls-17,.cls-6{opacity:0.5;}.cls-7{fill:#7f6593;opacity:0.2;}.cls-8{fill:url(#Безымянный_градиент_332);}.cls-9{fill:url(#Безымянный_градиент_544);}.cls-10{fill:#ebf0ff;}.cls-11,.cls-15{fill:#7e527c;}.cls-13{fill:#eed6dd;}.cls-15{opacity:0.8;}.cls-16{fill:#63495f;}.cls-17{fill:#5b3952;}.cls-18{fill:#a89aa6;}</style><linearGradient id="Безымянный_градиент_776" x1="1269.92" y1="252.59" x2="1205.13" y2="74.59" gradientUnits="userSpaceOnUse"><stop offset="0" stop-color="#728ee3"/><stop offset="0.3" stop-color="#836888"/><stop offset="0.57" stop-color="#e1d9e0"/><stop offset="0.85" stop-color="#937d9a"/><stop offset="1" stop-color="#6d636a"/></linearGradient><linearGradient id="Безымянный_градиент_776-2" x1="1303.25" y1="240.46" x2="1241.64" y2="71.17" xlink:href="#Безымянный_градиент_776"/><linearGradient id="Безымянный_градиент_372" x1="1277.55" y1="241.33" x2="1215.36" y2="70.46" gradientUnits="userSpaceOnUse"><stop offset="0" stop-color="#decdd1"/><stop offset="0.15" stop-color="#dbc9ce"/><stop offset="0.28" stop-color="#d3bfc4"/><stop offset="0.4" stop-color="#c5acb4"/><stop offset="0.53" stop-color="#b2939e"/><stop offset="0.63" stop-color="#9b7584"/><stop offset="0.7" stop-color="#ae959a"/><stop offset="1" stop-color="#ddd4ea"/></linearGradient><linearGradient id="Безымянный_градиент_332" x1="1270.02" y1="224.21" x2="1222.96" y2="94.9" gradientUnits="userSpaceOnUse"><stop offset="0" stop-color="#fff1de"/><stop offset="0.21" stop-color="#a690a5"/><stop offset="1" stop-color="#5c475e"/></linearGradient><linearGradient id="Безымянный_градиент_544" x1="1271.98" y1="221.37" x2="1227.83" y2="100.05" gradientUnits="userSpaceOnUse"><stop offset="0" stop-color="#ad99a0"/><stop offset="0.99" stop-color="#655167"/></linearGradient></defs><g class="cls-1"><g id="Layer_1" data-name="Layer 1"><path class="cls-2" d="M1310.47,237.83l-.08,0c-.34.06-1.64.3-3.62.6h0c-5.25.74-15,1.7-22.87,0a.38.38,0,0,1-.18,0l-27.22-14-5.53-2.83-2.59,1.75L1228,236.87l-1.94,1.3-.1,0-2.32.21a2.31,2.31,0,0,1-.46,0c-6,.55-19.89,1.55-26.18-.3l-.19,0c-.89-.28-1.22-1.26-1.09-2.81.61-7.2,11.38-27,20.78-43.19,7.15-12.32,13.42-22.36,13.42-22.36l1.06-12.53,3.19-37.08L1239,64.83l.21-2.63s17-3.61,28.14,0a.4.4,0,0,1,.15.09c4,1.89,11.23,27.84,18.58,59,2.06,8.72,4.12,17.76,6.1,26.81s4,18.36,5.83,27.09C1305.18,209.55,1310.47,237.83,1310.47,237.83Z" transform="translate(-1155.07 -60.59)"/><path class="cls-3" d="M1313,183.55s9.71,46.07-1.06,53.53a6.14,6.14,0,0,1-1.44.75l-.08,0a10,10,0,0,1-3.62.6h0c-4.35,0-10-1.9-15.67-4.5-12.67-5.79-25.89-15.18-25.89-15.18s-3.53,2.47-8.71,5.65l-3.2,1.93-.08,0a1.35,1.35,0,0,1-.2.11c-8.26,4.86-19,10.41-26.87,11.67l-.1,0a14.7,14.7,0,0,1-2.32.21,2.31,2.31,0,0,1-.46,0,11.2,11.2,0,0,1-3.75-.56,7.19,7.19,0,0,1-1.56-.81,8.15,8.15,0,0,1-2.48-3.11c-4.31-8.78-1.19-29.8,1.11-41.86,1-5.12,1.78-8.56,1.78-8.56s-18-14.35-29-28.31c-5.37-6.82-9-13.54-8-18.37,1.68-7.86,16.11-12.08,29.62-14.33a197.52,197.52,0,0,1,23.3-2.4c.65-.06,1-.06,1-.06s7.94-27.13,18-44.43c4.42-7.55,9.2-13.14,13.67-13.42a1.63,1.63,0,0,1,.38,0,5.46,5.46,0,0,1,1.83.31c14.57,4.48,28.65,57.57,28.65,57.57s50.63,1.55,53.49,16.79C1354,151.61,1313,183.55,1313,183.55Z" transform="translate(-1155.07 -60.59)"/><path class="cls-4" d="M1288.15,183.55s9,37.86,2.9,50.4a7.73,7.73,0,0,1-2.48,3.13,8.43,8.43,0,0,1-4.72,1.35c-8,.23-21-6.44-30.6-12.08-1.78-1-3.45-2.07-4.92-3-4.23-2.64-7-4.57-7-4.57s-13.25,9.39-25.89,15.2a58.66,58.66,0,0,1-10.71,3.82,17.22,17.22,0,0,1-7.68.36l-.19,0a7.1,7.1,0,0,1-2.28-1c-10.52-7.28-1.46-51.39-1-53.46a.23.23,0,0,0,0-.07s-41.08-31.94-38.34-46.68v0c2.92-15.21,53.49-16.76,53.49-16.76S1224,62.2,1239.17,62.2c4.63,0,9.54,5.68,14.09,13.45,10.07,17.3,18,44.43,18,44.43s6.39.2,14.77,1.16c9.57,1.05,21.69,3.08,29.94,6.87,4.91,2.26,8.44,5.11,9.2,8.76,2.14,9.93-15.62,27.85-27.21,38.27C1292.39,180.18,1288.15,183.55,1288.15,183.55Z" transform="translate(-1155.07 -60.59)"/><path class="cls-5" d="M1271.27,120.08s20.64-.6,29.43.13c34.2,2.87,43.36,8.56,46,12.53s-19.33.38-20.89.32-2.59-5.62-21-8S1271.27,120.08,1271.27,120.08Z" transform="translate(-1155.07 -60.59)"/><path class="cls-6" d="M1313,183.54c-4.73,1.45-18.86.23-20.92,0s27.08-25.8,32.68-36.07c5.72-10.5,22.54-9.32,25.08-7.47s-10.75,19.61-19.61,28.59A151.33,151.33,0,0,1,1313,183.54Z" transform="translate(-1155.07 -60.59)"/><path class="cls-5" d="M1307.75,142.68a132.25,132.25,0,0,1-15.61,5.37c-17.6,5-39.82,8.27-61.12,9.17-14.9.61-29.42.05-41.72-2-13.76-2.21-24.85-6.28-30.63-12.56a19.18,19.18,0,0,1-3.47-5.84c.49-2.51,2.3-4.69,5-6.53a.07.07,0,0,1,0,0c.52-.35,1.1-.7,1.7-1.05.09-.06.17-.08.28-.14,14.68-8,46.44-9,46.44-9S1224,62.2,1239.17,62.2a7.33,7.33,0,0,1,3.93,1.27c3.43,2.07,6.88,6.59,10.16,12.18,10.07,17.3,18,44.43,18,44.43s6.39.2,14.77,1.16c9.57,1.05,21.69,3.08,29.94,6.87C1317.27,134.46,1315.06,139.56,1307.75,142.68Z" transform="translate(-1155.07 -60.59)"/><path class="cls-7" d="M1162.28,149c-5.86,2.52,9.2,16.15,21.86,23.71C1196.58,180.1,1294.71,158,1303.7,160s23.36-14.3,20.78-21.23-6.91-7.74-6.91-6.55-5.38,11.44-17.28,14.42-103.91,9.88-114.47,10.79S1163.21,148.56,1162.28,149Z" transform="translate(-1155.07 -60.59)"/><path class="cls-5" d="M1197.15,236.3c-8.92-2-7.77-26.2-2.16-32.86s76-6.16,89.49-2,7.55,32,2.85,34.9-43.77-20.63-46.93-19.92S1214.45,240.21,1197.15,236.3Z" transform="translate(-1155.07 -60.59)"/><path class="cls-8" d="M1276,173.45l-5.53,4.49,1.61,6.35c3.47,13.46,5.31,27.45,5,35.23,0,.8-.07,1.51-.16,2.18-6.49-2.18-18.16-8.54-27.91-15.46l-5.1-3.64-2.83-2-7.76,5.65a147.2,147.2,0,0,1-22.23,13.28,49.4,49.4,0,0,1-5.25,2.18c-1-7.13.45-22.6,3.82-37.41l1.46-6.35-5.68-4.49c-13.49-10.75-26.79-24.75-29.54-31,5.16-3,21.67-6.09,36.46-6.59l9.56-.29,2.47-8.58c4.13-14.61,10.36-30,15.16-38.14,1,1.64,2.1,3.58,3.23,5.75a215.47,215.47,0,0,1,13,32.39l2.69,8.6,9.59.3c14.77.47,31.39,3.52,36.62,6.56C1302.1,148.7,1289.18,162.7,1276,173.45Z" transform="translate(-1155.07 -60.59)"/><path class="cls-9" d="M1304.67,142.47c-2.36,5.71-13.4,17.93-25.39,28.2-1.08.94-2.22,1.86-3.32,2.77l-5.52,4.5,1.61,6.36c3.47,13.46,5.3,27.45,5,35.22a152.66,152.66,0,0,1-22.49-13.28l-7.9-5.64h-5.59l-7.76,5.64a148,148,0,0,1-22.23,13.28c0-1-.08-2.07-.08-3.23,0-1.35,0-2.82.16-4.38a160.52,160.52,0,0,1,3.29-23.42c.27-1.41.59-2.8.92-4.19l1.47-6.36-5.64-4.5c-13.45-10.73-26.65-24.74-29.34-31,5.15-3.05,21.72-6.08,36.5-6.59l9.58-.29,2.48-8.59a208.91,208.91,0,0,1,12.36-32.39,217.43,217.43,0,0,1,13,32.39l2.69,8.61,9.58.3C1282.82,136.39,1299.43,139.42,1304.67,142.47Z" transform="translate(-1155.07 -60.59)"/><path class="cls-10" d="M1241.07,200.59s5.37-.17,7.48,1.35,15.82,10.81,15.78,12.34S1249.89,207,1241.07,200.59Z" transform="translate(-1155.07 -60.59)"/><path class="cls-5" d="M1205.83,221.7c-2-.74,2.11-13.54,3.57-14.62s1.08,11.63,1.68,12.44C1211.08,219.52,1207.51,221.82,1205.83,221.7Z" transform="translate(-1155.07 -60.59)"/><path class="cls-11" d="M1211.11,177.94h5.73s-5.86,17.11-6.73,21.7S1206.45,194.76,1211.11,177.94Z" transform="translate(-1155.07 -60.59)"/><path class="cls-11" d="M1179.29,147.79c-3.61-6.46,49.37-4.12,49.37-4.12s10.79-35.23,18.79-39.06c0,0-6.71-15.69-7.91-15.74s-17.63,46.72-17.63,46.72-23.56-.87-46,6.88Z" transform="translate(-1155.07 -60.59)"/><path class="cls-11" d="M1258.45,135.61s39.83,6.88,43.55,10.53l2.66-3.67S1292.41,136.45,1258.45,135.61Z" transform="translate(-1155.07 -60.59)"/><path class="cls-6" d="M1253.15,66.56c-7.53,0,3.38,13,8.68,25.09,5.18,11.83,29.89,12,29.89,12s-10.52-30.58-17.08-34.25S1253.15,66.56,1253.15,66.56Z" transform="translate(-1155.07 -60.59)"/><path class="cls-6" d="M1288.32,239.13c-1.56-1.17,3.3-.4,5.33-8.95,2.07-8.73,20.51-7.75,22.3-6.78s-1.13,11.78-4,13.69S1288.32,239.13,1288.32,239.13Z" transform="translate(-1155.07 -60.59)"/><path class="cls-5" d="M1295.41,222.78c-2.07-.71-1.88-20.69-1.79-24.45s20.11-2.22,21.12,0,1.89,22,.75,23.37S1296.75,223.25,1295.41,222.78Z" transform="translate(-1155.07 -60.59)"/><path class="cls-12" d="M1229.45,236.76c4.58-.82,14.39-5.21,14.73-6.55s-10.84-2.51-13.38-2.79-17.76,8.64-18.89,9.34S1229.45,236.76,1229.45,236.76Z" transform="translate(-1155.07 -60.59)"/><path class="cls-6" d="M1241.53,219.52c-2.13.73-9.74,5.49-10,6.73s11.67,2.69,13.23,3,8.39-2.82,8.39-2.82S1242,219.37,1241.53,219.52Z" transform="translate(-1155.07 -60.59)"/><path class="cls-6" d="M1327.36,145.08c-1.36,1.51-8.87,10.56-8.77,12.87s21.19-.32,22.5-2,10.74-14.48,8.71-15.9S1331.32,140.68,1327.36,145.08Z" transform="translate(-1155.07 -60.59)"/><path class="cls-13" d="M1271.27,120.08s43.63,4.23,49.5,12.9c8.93,13.16-19.42,39.08-19.42,39.08s28.25-25.1,24.34-37.47C1321.68,121.9,1271.27,120.08,1271.27,120.08Z" transform="translate(-1155.07 -60.59)"/><path class="cls-14" d="M1321.66,129.92c-3.33-1.54,1.78,6.63,1,12.6s3.45-1.69,3.39-5.72S1321.66,129.92,1321.66,129.92Z" transform="translate(-1155.07 -60.59)"/><path class="cls-5" d="M1246,65.75c-8.66-3.23-3.45,27.26,5.67,49.2,8.72,21,17.45,12.66,19.25,7.22S1253.13,71.14,1246,65.75Z" transform="translate(-1155.07 -60.59)"/><path class="cls-14" d="M1254.91,85.42c-6.29-.8-2.66,18.32,1.23,25s9.38,2.27,9.52-3.56S1257.28,85.72,1254.91,85.42Z" transform="translate(-1155.07 -60.59)"/><path class="cls-5" d="M1244.81,62.75c-2.81.86,7.93,2.86,16.16,3.82s10.25,1.06,10.19-1S1260.05,58.13,1244.81,62.75Z" transform="translate(-1155.07 -60.59)"/><path class="cls-5" d="M1288.2,238.45c-.74-.74,20.91-3.57,23.09-3.16s-2.79,2.72-2.79,2.72S1294.11,240.38,1288.2,238.45Z" transform="translate(-1155.07 -60.59)"/><path class="cls-12" d="M1272.05,184.3c3.47,13.46,5.3,27.45,5,35.22a152.66,152.66,0,0,1-22.49-13.28l-7.9-5.64h-5.59l-7.76,5.64a148,148,0,0,1-22.23,13.28c0-1-.08-2.07-.08-3.23l1.9-1.83c-.75-.13-1.35-1.05-1.74-2.55-1.25-4.41-.78-14,3.29-23.42a39.33,39.33,0,0,1,16.48-19c23-13.08,48.35,1.14,48.35,1.14-1.08.94-2.22,1.86-3.32,2.77l-5.52,4.5Z" transform="translate(-1155.07 -60.59)"/><path class="cls-14" d="M1192,230.47c-.84-5.67,1.33-9.51,3.34-9.3s4.67,13,2.8,14.56S1192.16,232,1192,230.47Z" transform="translate(-1155.07 -60.59)"/><path class="cls-15" d="M1253,226.5c-8.26,4.86-19,10.41-26.87,11.67l-.1,0a14.7,14.7,0,0,1-2.32.21,2.31,2.31,0,0,1-.46,0c-6,.55-19.89,1.55-26.18-.3l-.19,0a7.1,7.1,0,0,1-2.28-1c-10.52-7.28-1.46-51.39-1-53.46-.26,2-5.26,39.58-.84,48.65a7.15,7.15,0,0,0,3.08,3,24,24,0,0,0,9,2.49,78.9,78.9,0,0,0,14.75.1c3.18-.25,6.16-.62,8.57-1a37.39,37.39,0,0,0,5-1.09C1238.7,234,1251.22,227.42,1253,226.5Z" transform="translate(-1155.07 -60.59)"/><path class="cls-15" d="M1269.14,62.51s-.59-.09-1.68-.22c-.15,0-.34,0-.53-.06-4.44-.46-14.83-1.15-23.83,1.24a27.85,27.85,0,0,0-4.14,1.36,7.53,7.53,0,0,0-1.57.68c-21.59,14-26.48,57-26.48,57s-38.84,2.68-48.66,6.55c14.68-8,46.44-9,46.44-9S1224,62.2,1239.17,62.2c0,0,17-3.61,28.14,0A5.46,5.46,0,0,1,1269.14,62.51Z" transform="translate(-1155.07 -60.59)"/><path class="cls-16" d="M1314.47,160c-.06-5.46-12.82,5.25-13.72,7.39s-1.57,4.95-1,5.89S1313.22,171.31,1314.47,160Z" transform="translate(-1155.07 -60.59)"/><path class="cls-17" d="M1313.35,158.85c-3.53-.37-7.73,3.33-8.12,7.18s3.48,3.76,6.8,0S1314.31,159,1313.35,158.85Z" transform="translate(-1155.07 -60.59)"/><path class="cls-18" d="M1300.9,167.07s-.17,3.13,1,3.91c1.87,1.29,6-.35,6-.35s-4.75,3.33-8.17,3.6S1300.9,167.07,1300.9,167.07Z" transform="translate(-1155.07 -60.59)"/><path class="cls-14" d="M1298.74,173.91c-1.08-1.39,5.56-1.49,6.13-1.64S1299.91,175.26,1298.74,173.91Z" transform="translate(-1155.07 -60.59)"/><path class="cls-16" d="M1220.53,231.58c-.84-.14.89-3.81,3-4.49s4.93-.6,4.81.77S1224.66,232.26,1220.53,231.58Z" transform="translate(-1155.07 -60.59)"/><path class="cls-18" d="M1222.1,228c-1.57,3.59.87,3.3,3.27,2.8a15.52,15.52,0,0,1-6.32,1.48A7.53,7.53,0,0,1,1222.1,228Z" transform="translate(-1155.07 -60.59)"/><path class="cls-14" d="M1219.38,232.2c-.25-.27,1.32-1.27,2.29-1.3a3.27,3.27,0,0,1,2,.54A7.71,7.71,0,0,1,1219.38,232.2Z" transform="translate(-1155.07 -60.59)"/><path class="cls-17" d="M1224.88,226.77c-3.22,1.57-2.25,4,.32,3.74s3.41-2.79,2.81-3.33S1224.88,226.77,1224.88,226.77Z" transform="translate(-1155.07 -60.59)"/><path class="cls-5" d="M1199.37,163.13c-7-3.49,4,8.68,7,11.1l4.7,3.71h5.73S1202.09,164.34,1199.37,163.13Z" transform="translate(-1155.07 -60.59)"/><path class="cls-14" d="M1211.11,177.94c-1.44-1.14-2.47-4.84-.83-4.65s6.56,4.65,6.56,4.65Z" transform="translate(-1155.07 -60.59)"/><path class="cls-15" d="M1250,224.4s22.32,10.28,33.63,12.83,25.64,1,25.64,1-14.57,2.56-27.45.26S1250,224.4,1250,224.4Z" transform="translate(-1155.07 -60.59)"/><path class="cls-14" d="M1156.12,137.26c1.22,6.1,9.51-2,11.33-5.5S1156.49,128.37,1156.12,137.26Z" transform="translate(-1155.07 -60.59)"/><path class="cls-13" d="M1270.44,177.94s27.63-18.93,34.22-35.47C1304.66,142.47,1291.47,164,1270.44,177.94Z" transform="translate(-1155.07 -60.59)"/><path class="cls-6" d="M1218.83,175.25c-2.64.28-15.27-10.39-17.22-15.41s15.36.13,42-1.36,56.58-13.78,56.1-12.19-16.91,20.33-21,21.21-13-5.2-31.7-4.71S1222.41,174.87,1218.83,175.25Z" transform="translate(-1155.07 -60.59)"/></g></g></svg>